<svg width="25" height="24" viewBox="0 0 25 24" fill="none" xmlns="http://www.w3.org/2000/svg">
<g clip-path="url(#clip0_325_1049)">
<path d="M12.5 2C12.875 2 13.245 2.02 13.61 2.061C13.7405 2.07545 13.8669 2.11546 13.982 2.17876C14.0971 2.24206 14.1986 2.3274 14.2806 2.42992C14.3627 2.53243 14.4238 2.65011 14.4604 2.77624C14.497 2.90237 14.5084 3.03447 14.494 3.165C14.4796 3.29553 14.4395 3.42194 14.3762 3.53701C14.3129 3.65208 14.2276 3.75356 14.1251 3.83565C14.0226 3.91773 13.9049 3.97882 13.7788 4.01543C13.6526 4.05204 13.5205 4.06345 13.39 4.049C11.742 3.86464 10.0775 4.19694 8.62668 4.99992C7.17583 5.80291 6.01035 7.03689 5.29147 8.5312C4.57258 10.0255 4.3358 11.7063 4.61389 13.341C4.89198 14.9758 5.67119 16.4837 6.84374 17.6563C8.01629 18.8288 9.52423 19.608 11.159 19.8861C12.7937 20.1642 14.4745 19.9274 15.9688 19.2085C17.4631 18.4896 18.6971 17.3242 19.5001 15.8733C20.3031 14.4225 20.6354 12.758 20.451 11.11C20.4366 10.9795 20.448 10.8474 20.4846 10.7212C20.5212 10.5951 20.5823 10.4774 20.6644 10.3749C20.8301 10.1679 21.0714 10.0352 21.335 10.006C21.5986 9.97683 21.863 10.0536 22.0701 10.2194C22.1726 10.3014 22.2579 10.4029 22.3212 10.518C22.3845 10.6331 22.4246 10.7595 22.439 10.89C22.479 11.255 22.5 11.625 22.5 12C22.5 17.523 18.023 22 12.5 22C6.977 22 2.5 17.523 2.5 12C2.5 6.477 6.977 2 12.5 2ZM12.468 7.877C12.5339 8.13372 12.4952 8.40611 12.3604 8.63431C12.2256 8.8625 12.0057 9.02785 11.749 9.094C11.0439 9.27871 10.43 9.71367 10.022 10.3177C9.61404 10.9217 9.43975 11.6536 9.5317 12.3767C9.62365 13.0998 9.97555 13.7647 10.5217 14.2474C11.0679 14.7301 11.7711 14.9976 12.5 15C13.165 14.9997 13.8112 14.7786 14.337 14.3714C14.8627 13.9641 15.2384 13.3938 15.405 12.75C15.4713 12.4931 15.6369 12.2731 15.8654 12.1384C16.094 12.0036 16.3666 11.9652 16.6235 12.0315C16.8804 12.0978 17.1004 12.2634 17.2351 12.4919C17.3699 12.7205 17.4083 12.9931 17.342 13.25C17.0352 14.4259 16.3108 15.45 15.3042 16.1308C14.2975 16.8116 13.0774 17.1026 11.8718 16.9495C10.6662 16.7964 9.55754 16.2096 8.75301 15.2987C7.94848 14.3879 7.50307 13.2153 7.5 12C7.50017 10.8915 7.86857 9.81441 8.54734 8.938C9.2261 8.06158 10.1768 7.43546 11.25 7.158C11.3772 7.12522 11.5096 7.11781 11.6396 7.13621C11.7697 7.1546 11.8948 7.19843 12.0079 7.2652C12.121 7.33197 12.2199 7.42036 12.2988 7.52534C12.3778 7.63031 12.4352 7.74981 12.468 7.877V7.877ZM19.004 2.127C19.1865 2.20268 19.3425 2.33074 19.4524 2.49501C19.5622 2.65928 19.6209 2.8524 19.621 3.05V4.88H21.45C21.6478 4.88004 21.841 4.93871 22.0055 5.0486C22.1699 5.15848 22.298 5.31465 22.3737 5.49735C22.4493 5.68005 22.4692 5.88108 22.4306 6.07503C22.392 6.26898 22.2968 6.44715 22.157 6.587L18.62 10.12C18.4325 10.3075 18.1782 10.4129 17.913 10.413H15.5L13.672 12.242C13.4844 12.4296 13.2299 12.5351 12.9645 12.5351C12.6991 12.5351 12.4446 12.4296 12.257 12.242C12.0694 12.0544 11.9639 11.7999 11.9639 11.5345C11.9639 11.2691 12.0694 11.0146 12.257 10.827L14.086 9V6.586C14.0861 6.32081 14.1915 6.06649 14.379 5.879L17.914 2.343C18.0538 2.20307 18.2321 2.10776 18.4261 2.06913C18.6201 2.0305 18.8212 2.0503 19.004 2.126V2.127ZM17.621 5.464L16.086 7V8.414H17.5L19.036 6.879H18.621C18.3558 6.879 18.1014 6.77364 17.9139 6.58611C17.7264 6.39857 17.621 6.14422 17.621 5.879V5.464V5.464Z" fill="#B2B3B3"/>
</g>
<defs>
<clipPath id="clip0_325_1049">
<rect width="24" height="24" fill="white" transform="translate(0.5)"/>
</clipPath>
</defs>
</svg>
