<svg width="13" height="24" viewBox="0 0 13 24" fill="none" xmlns="http://www.w3.org/2000/svg">
<path d="M0.595537 0.546573C0.41925 0.727056 0.320557 0.969338 0.320557 1.22163C0.320557 1.47392 0.41925 1.7162 0.595537 1.89669L10.4445 12.0003L0.595537 22.1019C0.41925 22.2824 0.320557 22.5247 0.320557 22.7769C0.320557 23.0292 0.41925 23.2715 0.595537 23.452C0.681225 23.54 0.783675 23.61 0.896841 23.6577C1.01001 23.7055 1.13159 23.7301 1.25442 23.7301C1.37726 23.7301 1.49884 23.7055 1.61201 23.6577C1.72517 23.61 1.82762 23.54 1.91331 23.452L12.3868 12.7057C12.5707 12.517 12.6737 12.2638 12.6737 12.0003C12.6737 11.7368 12.5707 11.4836 12.3868 11.2949L1.91331 0.548595C1.82762 0.460588 1.72517 0.390639 1.61201 0.342877C1.49884 0.295115 1.37726 0.270508 1.25442 0.270508C1.13159 0.270508 1.01001 0.295115 0.896841 0.342877C0.783675 0.390639 0.681225 0.460588 0.595537 0.548595V0.546573Z" fill="white"/>
</svg>
